<svg id="Capa_1" data-name="Capa 1" xmlns="http://www.w3.org/2000/svg" viewBox="0 0 512 512"><defs><style>.cls-1{fill:#fff;}</style></defs><title>Artboard 1</title><path class="cls-1" d="M447,201.91,277.32,32.25a45,45,0,0,0-69.11,57L208,90.42a314,314,0,0,1-86.12,160.92L44,329.15a45,45,0,0,0,0,63.63l42.41,42.41a45,45,0,0,0,63.62,0l10.61-10.6,74.22,74.22a45,45,0,0,0,63.62-63.62l-31.81-31.81,10.61-10.6a45,45,0,0,0,0-63.62L270.11,322a314,314,0,0,1,118.7-50.7L390,271a45,45,0,0,0,57-5.48h0A45,45,0,0,0,447,201.91ZM128.87,414a15,15,0,0,1-21.21,0L65.24,371.57a15,15,0,0,1,0-21.21l74.23-74.22,63.62,63.62ZM277.32,456.4a15,15,0,1,1-21.21,21.21l-74.23-74.23,21.21-21.21ZM224.3,361c4.51-4.5,11.25-11.41,21.9-20.5l9.91,9.9a15,15,0,0,1,0,21.21l-10.6,10.6Zm.63-41.77L160,254.29a343.45,343.45,0,0,0,73-139.06l131,131A343.43,343.43,0,0,0,224.93,319.19Zm200.84-74.86a15,15,0,0,1-21.21,0L234.9,74.67a15,15,0,1,1,21.21-21.21L425.77,223.12A15,15,0,0,1,425.77,244.33Z"/><path class="cls-1" d="M150.07,329.15a15,15,0,0,0-21.2,0l-21.21,21.21a15,15,0,1,0,21.21,21.21l21.2-21.21A15,15,0,0,0,150.07,329.15Z"/><path class="cls-1" d="M346.19,0a15,15,0,0,0-15,15V45a15,15,0,0,0,30,0V15A15,15,0,0,0,346.19,0Z"/><path class="cls-1" d="M466.16,120h-30a15,15,0,1,0,0,30h30a15,15,0,0,0,0-30Z"/><path class="cls-1" d="M446.77,34.38a15,15,0,0,0-21.21,0l-30,30a15,15,0,1,0,21.21,21.21l30-30A15,15,0,0,0,446.77,34.38Z"/></svg>